<svg data-encore-id="verifiedBadge" role="img" aria-hidden="false"
  class="e-9960-icon e-9960-baseline XWpTterac_80p1pzmH5N" data-testid="verified-icon"
  viewBox="0 0 16 16"
  style="--encore-icon-fill: var(--text-announcement, #0064c1); --encore-icon-height: var(--encore-graphic-size-informative-smaller); --encore-icon-width: var(--encore-graphic-size-informative-smaller);">
  <title>Verified account</title>
  <path
    d="M7.155.406a1.18 1.18 0 0 1 1.69 0L10.46 2.06l2.312-.027a1.18 1.18 0 0 1 1.195 1.194L13.94 5.54l1.654 1.615a1.18 1.18 0 0 1 0 1.69L13.94 10.46l.027 2.312a1.18 1.18 0 0 1-1.195 1.195l-2.312-.027-1.615 1.654a1.18 1.18 0 0 1-1.69 0L5.54 13.94l-2.312.027a1.18 1.18 0 0 1-1.195-1.195l.027-2.312L.406 8.845a1.18 1.18 0 0 1 0-1.69L2.06 5.54l-.027-2.313a1.18 1.18 0 0 1 1.195-1.194l2.312.027zm4.503 6.067a.75.75 0 0 0-1.06-1.06L6.647 9.36 5.446 8.157a.75.75 0 1 0-1.06 1.06l2.264 2.265z"></path>
</svg>
